<svg width="125" height="130" viewBox="0 0 410 520" fill="none" xmlns="http://www.w3.org/2000/svg">
    <g id="blackcat-animation 1">
        <g id="layer1">
            <path id="cat-body" d="M141.098 518.832C128.508 516.464 118.849 510.062 114.472 501.185C109.471 491.044 111.416 480.392 120.149 470.098L123.569 466.066L119.341 463.163C105.073 453.367 90.9148 436.571 83.1948 420.278C78.9448 411.31 76.4388 403.915 74.4098 394.358C72.8988 387.241 72.7127 384.992 72.6997 373.696C72.6877 363.015 72.9118 359.89 74.1228 353.837C75.7458 345.727 78.8247 335.879 81.7617 329.402C82.8497 327.001 83.7407 324.975 83.7407 324.9C30.2588 286.584 34.7787 228.862 37.3717 195.028C37.9787 184.753 41.8227 174.675 44.5787 165.002C73.3327 64.088 265.647 -4.58796 339.993 176.862C343.081 184.52 345.774 194.995 347.11 204.545C348.68 215.76 348.087 234.572 345.825 245.356C343.786 255.074 340.042 268.29 336.272 276.249C323.238 301.29 314.648 308.887 297.176 324.963L298.763 328.098C300.806 332.135 306.491 354.752 306.491 354.752C307.363 374.655 309.563 382.691 307.789 394.934C305.784 416.799 296.158 427.271 284.283 441.941C279.007 448.472 270.742 456.359 263.662 461.622L257.533 466.177L260.604 469.623C266.722 476.487 269.916 484.93 269.219 492.393C267.096 515.136 235.313 526.687 206.68 515.121C202.057 513.254 196.676 510.069 193.333 507.222C190.662 504.946 190.655 504.947 186.73 508.104C175.48 517.153 156.228 521.679 141.098 518.832Z" fill="black"/>
        </g>
        <g id="layer2">
            <path id="cat-tail" d="M249.7 391.407L230.187 424.161L271.304 449.946C357.425 510.097 394.974 455.986 403.714 431.13C406.887 422.105 415.901 384.103 400.926 370.5C394.04 364.244 380.059 365.775 373.051 371.894C364.504 379.355 369.087 397.097 366.779 405.345C362.713 419.87 358.365 427.423 347.999 429.998C313.836 438.484 313.402 420.904 249.7 391.407Z" fill="black" stroke="black" stroke-width="0.633777"/>
        </g>
        <g id="layer3">
            <g id="eyes">
                <path id="path2989" d="M81.105 203.021C148.448 181.651 176.929 222.978 175.147 253.779C146.748 273.256 83.0774 254.014 81.105 203.021Z" fill="white" stroke="black"/>
                <path id="path2991" d="M222.15 254.981C221.714 201.479 272.448 188.006 313.628 200.196C321.382 238.939 273.635 273.509 222.15 254.981Z" fill="white" stroke="black"/>
                <path id="path2993" d="M127.269 251.833C120.642 251.603 114.379 248.75 109.856 243.902C105.333 239.054 102.921 232.608 103.151 225.981C103.381 219.355 106.234 213.091 111.083 208.568C115.931 204.045 122.377 201.634 129.004 201.864C135.63 202.094 141.894 204.947 146.417 209.795C150.94 214.643 153.351 221.09 153.121 227.716C152.891 234.342 150.038 240.606 145.19 245.129C140.342 249.652 133.895 252.064 127.269 251.833Z" fill="black"/>
                <path id="path3763" d="M268.284 252.091C261.653 252.065 255.305 249.407 250.634 244.701C245.963 239.995 243.354 233.626 243.379 226.996C243.404 220.366 246.062 214.017 250.768 209.346C255.474 204.676 261.843 202.066 268.473 202.091C275.104 202.116 281.452 204.774 286.123 209.48C290.794 214.186 293.403 220.555 293.378 227.186C293.353 233.816 290.695 240.165 285.989 244.835C281.283 249.506 274.914 252.116 268.284 252.091Z" fill="black"/>
            </g>
        </g>
        <g id="layer4">
            <path id="ear-right" d="M296.188 39.2046L275.253 94.293L297.123 123.798L296.188 39.2046ZM221.055 67.922L270.299 24.9971C270.299 24.9971 287.504 7.24219 297.749 2.50869C299.789 1.56629 302.297 0.18609 304.215 1.47399C307.405 3.61719 308.207 9.27079 309.083 13.6931C318.027 58.862 311.718 153.321 311.718 153.321L294.701 125.842L271.212 94.302L242.085 77.045L221.055 67.922Z" fill="black" stroke="black" stroke-width="0.862339"/>
            <path id="ear-left" d="M77.118 48.674L102.177 103.684L76.154 133.226L77.118 48.674ZM166.753 77.198L107.96 34.4122C107.96 34.4122 87.415 16.7074 75.19 12.0007C72.756 11.0637 69.763 9.69017 67.48 10.982C63.679 13.1317 62.733 18.7843 61.697 23.2064C51.113 68.374 58.805 162.768 58.805 162.768L79.045 135.264L106.996 103.684L141.694 86.366L166.753 77.198Z" fill="black" stroke="black" stroke-width="0.941381"/>
        </g>
        <g id="layer6">
            <path id="whisker-left" d="M13.034 323.143L15.206 328.591C36.571 315.873 53.514 308.994 73.859 304.62L68.428 300.807C47.285 306.035 32.162 315.064 13.034 323.143ZM7.06 306.799L9.23199 310.613C30.102 301.153 49.158 290.527 59.739 289.366L54.851 284.462C37.653 293.366 24.341 296.774 7.06 306.799ZM0 288.276L3.258 293.724C34.106 277.747 18.91 285.634 47.791 272.477L44.533 267.029C29.324 275.564 15.733 281.777 0 288.276Z" fill="black"/>
            <path id="whisker-right" d="M370.921 313.109L368.715 318.557C347.02 305.839 329.816 298.961 309.157 294.588L314.672 290.775C336.141 296.003 351.498 305.031 370.921 313.109ZM376.987 296.767L374.781 300.58C353.59 291.121 334.239 280.496 323.495 279.335L328.458 274.432C345.922 283.335 359.439 286.742 376.987 296.767ZM384.156 278.245L380.847 283.693C349.523 267.718 364.954 275.603 335.627 262.448L338.936 257C354.38 265.535 368.181 271.747 384.156 278.245Z" fill="black"/>
        </g>
        <g id="layer5">
            <path id="nose" d="M214.682 263.581C214.683 265.101 214.248 266.607 213.402 268.012C212.555 269.417 211.315 270.694 209.751 271.77C208.187 272.845 206.33 273.698 204.287 274.28C202.243 274.862 200.053 275.162 197.841 275.162C195.629 275.162 193.439 274.862 191.395 274.28C189.352 273.698 187.495 272.845 185.931 271.77C184.367 270.694 183.127 269.417 182.281 268.012C181.434 266.607 180.999 265.101 181 263.581C180.999 262.06 181.434 260.554 182.281 259.149C183.127 257.744 184.367 256.467 185.931 255.392C187.495 254.316 189.352 253.463 191.395 252.881C193.439 252.299 195.629 252 197.841 252C200.053 252 202.243 252.299 204.287 252.881C206.33 253.463 208.187 254.316 209.751 255.392C211.315 256.467 212.555 257.744 213.402 259.149C214.248 260.554 214.683 262.06 214.682 263.581Z" fill="#EAE7E7"/>
        </g>
    </g>
    <defs>
        <clipPath id="clip0">
            <rect width="600" height="600" fill="white"/>
        </clipPath>
        <linearGradient id="lineargradient" x1="0%" y1="50%" x2="50%" y2="100%">
            <stop offset="0%" style="stop-color:#00AF00" />
            <stop offset="100%" style="stop-color:#00FF00" />
        </linearGradient>
    </defs>
    <style>
    /* <![CDATA[ */
        #nose{
            fill: grey;
        }
        #path2991{
            fill: url(#lineargradient);
        }
        #path2989{
            fill: url(#lineargradient);
        }
        #ear-right{
            animation: waveright 1s infinite alternate ease-in-out;
        }
        #ear-left{
            animation: waveleft 1s infinite alternate ease-in-out;
        }
        #cat-tail{
            animation: waveright 1s infinite alternate ease-in-out;
        }
        @keyframes waveleft {
            0%{
                transform: rotate(0);
            }
            100%{
                transform: rotate(-2deg);
            }
        }
        @keyframes waveright {
            0%{
                transform: rotate(0);
            }
            100%{
                transform: rotate(2deg);
            }
        }
    /* ]]> */
    </style>
</svg>
